<svg data-name="techlion" id="techlion" height="200" viewBox="0 0 1320 1778.44" xmlns="http://www.w3.org/2000/svg" style="height: 246.75px;">
			<polygon class="cls-8" points="628.23 183.63 426.46 139.91 685.4 2.03 628.23 183.63" style="fill: rgb(101, 94, 109);"></polygon>
			<polygon class="cls-2" points="220.32 336.33 237.13 235.44 542.4 163.25 220.32 336.33" style="fill: rgb(101, 94, 109);"></polygon>
			<polygon class="cls-2" points="371.65 410.31 220.32 336.33 253.95 410.31 371.65 410.31" style="fill: rgb(101, 94, 109);"></polygon>
			<polygon class="cls-2" points="243.86 541.47 576.79 373.32 627.23 181.63 243.86 541.47" style="fill: rgb(101, 94, 109);"></polygon>
			<polygon class="cls=keep" points="987.07 551.55 872.73 494.38 963.53 480.93 987.07 551.55"></polygon>
			<polygon class="cls=keep" points="1262.83 766.78 1175.39 682.71 1320 665.89 1262.83 766.78"></polygon>
			<polygon class="cls-2" points="627.23 830.68 499.44 602 243.86 541.47 627.23 830.68" style="fill: rgb(101, 94, 109);"></polygon>
			<polygon class="cls-3" points="657.5 1015.64 627.23 830.68 684.4 649.08 684.4 823.95 657.5 1015.64" style="fill: rgb(101, 94, 109);">
			</polygon>
			<polygon class="cls-2" points="802.11 1150.16 684.4 830.68 654.14 1015.64 802.11 1150.16" style="fill: rgb(101, 94, 109);"></polygon>
			<polygon class="cls-2" points="1074.51 1119.89 1114.86 1096.35 1074.51 1005.55 1000.52 951.74 987.07 1056 1074.51 1119.89" style="fill: rgb(101, 94, 109);">
			</polygon>
			<polygon class="cls-25" points="1188.85 1045.91 1246.02 951.74 1074.51 998.83 1188.85 1045.91"></polygon>
			<polygon class="cls-27" points="1138.4 891.21 1000.52 951.74 956.8 867.67 1138.4 891.21" style="fill: rgb(193, 193, 178);"></polygon>
			<polygon class="cls-13" points="75.98 783.96 35.63 706.61 240.77 538.47 75.98 783.96" style="fill: rgb(215, 230, 237);"></polygon>
			<polygon class="cls-2" points="89.16 988.74 243.86 534.74 227.04 675.98 89.16 988.74" style="fill: rgb(101, 94, 109);"></polygon>
			<polygon class="cls-8" points="220.32 1119.89 139.61 924.84 294.3 699.52 220.32 1119.89" style="fill: rgb(101, 94, 109);"></polygon>
			<polygon class="cls-20" points="405.28 1277.95 243.1 990.42 324.57 1015.64 405.28 1277.95" style="fill: rgb(116, 94, 142);"></polygon>
			<polygon class="cls-20" points="475.9 1251.05 324.57 1015.64 364.92 797.05 475.9 1251.05" style="fill: rgb(116, 94, 142);"></polygon>
			<polygon class="cls-2" points="563.34 1442.73 492.72 1251.05 553.25 1119.89 563.34 1442.73" style="fill: rgb(101, 94, 109);"></polygon>
			<polygon class="cls-8" points="633.96 1351.94 654.14 1220.78 553.25 1119.89 633.96 1351.94" style="fill: rgb(101, 94, 109);"></polygon>
			<polygon class="cls-2" points="775.2 1395.65 654.14 1022.37 654.14 1220.78 775.2 1395.65" style="fill: rgb(101, 94, 109);"></polygon>
			<polygon class="cls-2" points="469.18 766.78 654.14 1015.64 654.14 1220.78 469.18 766.78" style="fill: rgb(101, 94, 109);"></polygon>
			<polygon class="cls-8" points="553.25 1113.17 502.8 998.83 469.18 766.78 553.25 1113.17" style="fill: rgb(101, 94, 109);"></polygon>
			<polygon class="cls-8" points="805.11 1772.3 905.99 1546.99 875.73 1103.08 805.11 1772.3" style="fill: rgb(101, 94, 109);"></polygon>
			<polygon class="cls-2" points="973.62 1536.9 973.62 1385.56 1091.32 1304.85 973.62 1536.9" style="fill: rgb(101, 94, 109);"></polygon>
			<polygon class="cls-5" points="902.99 1546.99 956.8 1257.77 1024.06 1257.77 902.99 1546.99" style="fill: rgb(101, 94, 109);"></polygon>
			<polygon class="cls-2" points="987.07 1056 1084.59 1220.78 1024.06 1257.77 973.62 1156.88 987.07 1056" style="fill: rgb(101, 94, 109);">
			</polygon>
			<polygon class="cls-2" points="775.2 1395.65 872.73 1103.08 802.11 1156.88 775.2 1395.65" style="fill: rgb(101, 94, 109);"></polygon>
			<polygon class="cls-2" points="68.24 775.95 0 753.33 33.63 709.61 68.24 775.95" style="fill: rgb(101, 94, 109);"></polygon>
			<polygon class="cls-18" points="88.63 987.67 79.21 774.71 240.3 542.74 88.63 987.67" style="fill: rgb(206, 236, 197);"></polygon>
			<polygon class="cls-2" points="405.28 1277.95 220.32 1119.89 243.86 988.74 405.28 1277.95" style="fill: rgb(101, 94, 109);"></polygon>
			<polygon class="cls-13" points="324.57 1015.64 294.3 699.52 243.86 988.74 324.57 1015.64" style="fill: rgb(215, 230, 237);"></polygon>
			<polygon class="cls-20" points="227.04 675.98 294.3 692.8 243.86 541.47 227.04 675.98" style="fill: rgb(116, 94, 142);"></polygon>
			<polygon class="cls-4" points="97.16 563.37 268.67 405.31 379.65 405.31 251.86 529.74 97.16 563.37" style="fill: rgb(101, 94, 109);">
			</polygon>
			<polygon class="cls-12" points="230.77 365.92 86.16 568.37 250.95 410.31 230.77 365.92" style="fill: rgb(215, 230, 237);"></polygon>
			<polygon class="cls-22" points="603.69 480.93 621.87 821.08 499.44 602 603.69 480.93" style="fill: rgb(239, 238, 253);"></polygon>
			<polygon class="cls-9" points="576.79 373.32 603.69 480.93 664.23 289.24 627.23 181.63 576.79 373.32" style="fill: rgb(116, 94, 142);">
			</polygon>
			<polygon class="cls-2" points="475.9 198.99 627.23 181.63 543.16 164.82 475.9 198.99" style="fill: rgb(101, 94, 109);"></polygon>
			<polygon class="cls-22" points="220.32 336.33 412.01 332.96 475.9 198.45 220.32 336.33" style="fill: rgb(239, 238, 253);"></polygon>
			<polygon class="cls-2" points="233.77 235.44 425.46 137.91 535.79 164.82 233.77 235.44" style="fill: rgb(101, 94, 109);"></polygon>
			<polygon class="cls-2" points="761.75 221.99 775.2 77.38 902.99 269.07 761.75 221.99" style="fill: rgb(101, 94, 109);"></polygon>
			<polygon class="cls-2" points="629.88 173.22 761.75 221.99 684.4 .03 629.88 173.22" style="fill: rgb(101, 94, 109);"></polygon>
			<polygon class="cls-27" points="761.75 331.9 716.86 433.85 633.5 405.14 675.18 279.17 761.75 331.9" style="fill: rgb(193, 193, 178);">
			</polygon>
			<polygon class="cls-2" points="788.65 652.44 603.69 480.93 694.49 652.44 788.65 652.44" style="fill: rgb(101, 94, 109);"></polygon>
			<polygon class="cls-23" points="986.07 788.96 871.73 745.24 787.65 654.44 851.55 627.54 986.07 694.8 986.07 788.96" style="fill: rgb(253, 254, 252);"></polygon>
			<polygon class="cls-27" points="1145.13 894.57 1246.02 844.13 1246.02 951.74 1228.1 956.66 1145.13 894.57" style="fill: rgb(193, 193, 178);">
			</polygon>
			<polygon class="cls-2" points="973.62 1385.56 1091.32 1304.85 1084.59 1220.78 1024.06 1257.77 973.62 1385.56" style="fill: rgb(101, 94, 109);"></polygon>
			<polygon class="cls-11" points="950.08 1256.77 872.73 1102.08 902.99 1545.99 950.08 1256.77" style="fill: rgb(239, 238, 253);"></polygon>
			<polygon class="cls-24" points="728.12 1526.81 654.14 1220.78 775.2 1395.65 728.12 1526.81" style="fill: rgb(215, 230, 237);"></polygon>
			<polygon class="cls-22" points="563.34 1442.73 614.69 1296.54 553.25 1119.89 563.34 1442.73" style="fill: rgb(239, 238, 253);"></polygon>
			<polygon class="cls-10" points="654.14 1015.64 802.11 1150.16 775.2 1395.65 654.14 1015.64" style="fill: rgb(206, 236, 197);"></polygon>
			<polygon class="cls-15" points="877.73 1102.35 807.11 1156.16 689.4 836.68 877.73 1102.35" style="fill: rgb(215, 230, 237);"></polygon>
			<polygon class="cls-2" points="1020.7 1251.05 872.73 1103.08 802.11 766.78 1020.7 1251.05" style="fill: rgb(101, 94, 109);"></polygon>
			<polygon class="cls-14" points="294.3 693.8 469.18 767.78 499.44 989.74 294.3 693.8" style="fill: rgb(116, 94, 142);"></polygon>
			<polygon class="cls-10" points="654.14 1220.78 553.25 1113.17 475.9 775.95 654.14 1220.78" style="fill: rgb(206, 236, 197);"></polygon>
			<polygon class="cls-21" points="475.9 198.45 371.65 410.31 627.23 181.63 475.9 198.45" style="fill: rgb(206, 236, 197);"></polygon>
			<polygon class="cls-2" points="220.32 336.33 412.01 332.96 371.65 410.31 220.32 336.33" style="fill: rgb(101, 94, 109);"></polygon>
			<polygon class="cls-7" points="39.94 699.52 88.16 568.37 232.77 541.47 39.94 699.52" style="fill: rgb(101, 94, 109);"></polygon>
			<polygon class="cls-9" points="576.79 373.32 603.69 480.93 243.86 541.47 576.79 373.32" style="fill: rgb(116, 94, 142);"></polygon>
			<polygon class="cls-21" points="499.44 602 603.69 480.93 243.86 541.47 499.44 602" style="fill: rgb(206, 236, 197);"></polygon>
			<polygon class="cls-23" points="630.6 171.54 761.75 221.99 761.75 336.33 664.23 285.88 630.6 171.54" style="fill: rgb(253, 254, 252);">
			</polygon>
			<polygon class="cls-22" points="684.4 .03 775.2 77.38 763.25 215.26 684.4 .03" style="fill: rgb(239, 238, 253);"></polygon>
			<polygon class="cls-23" points="852.55 53.84 775.2 77.38 902.99 269.07 852.55 53.84" style="fill: rgb(253, 254, 252);"></polygon>
			<polygon class="cls-23" points="929.9 107.65 852.55 53.84 902.99 269.07 929.9 107.65" style="fill: rgb(253, 254, 252);"></polygon>
			<polygon class="cls-23" points="987.07 248.89 929.9 107.65 902.99 279.16 987.07 248.89" style="fill: rgb(253, 254, 252);"></polygon>
			<polygon class="cls-23" points="1067.78 359.87 987.07 248.89 902.99 279.16 1067.78 359.87" style="fill: rgb(253, 254, 252);"></polygon>
			<polygon class="cls-23" points="1061.05 235.44 1067.78 359.87 987.07 248.89 1061.05 235.44" style="fill: rgb(253, 254, 252);"></polygon>
			<polygon class="cls-23" points="714.67 433.85 761.75 336.33 761.75 221.99 902.99 269.07 1007.25 386.77 963.53 480.93 714.67 433.85" style="fill: rgb(253, 254, 252);">
			</polygon>
			<polygon class="cls-27" points="788.65 652.44 721.37 435.12 627.23 410.31 603.69 480.93 788.65 652.44" style="fill: rgb(193, 193, 178);">
			</polygon>
			<polygon class="cls-19" points="625.51 824.59 692.6 643.43 608.69 484.93 625.51 824.59" style="fill: rgb(116, 94, 142);"></polygon>
			<polygon class="cls-8" points="89.16 988.74 294.3 692.8 227.04 675.98 89.16 988.74" style="fill: rgb(101, 94, 109);"></polygon>
			<polygon class="cls-20" points="243.86 541.47 627.23 830.68 294.3 692.8 243.86 541.47" style="fill: rgb(116, 94, 142);"></polygon>
			<polygon class="cls-14" points="325.19 994.78 365.92 798.05 295.3 700.52 325.19 994.78" style="fill: rgb(116, 94, 142);"></polygon>
			<polygon class="cls-1" points="469.18 1304.85 499.44 998.83 553.25 1119.89 469.18 1304.85" style="fill: rgb(101, 94, 109);"></polygon>
			<polygon class="cls-8" points="365.92 796.05 500.44 997.83 473.2 1234.91 365.92 796.05" style="fill: rgb(101, 94, 109);"></polygon>
			<polygon class="cls-2" points="654.14 1015.64 627.23 830.68 469.18 766.78 654.14 1015.64" style="fill: rgb(101, 94, 109);"></polygon>
			<polygon class="cls-7" points="715.67 1580.62 833.16 1487.53 870.37 1113.17 715.67 1580.62" style="fill: rgb(101, 94, 109);"></polygon>
			<polygon class="cls-8" points="726.3 1519.26 633.96 1351.94 655.82 1227.74 726.3 1519.26" style="fill: rgb(101, 94, 109);"></polygon>
			<polygon class="cls-10" points="1020.7 1251.05 950.08 1257.77 872.73 1103.08 1020.7 1251.05" style="fill: rgb(206, 236, 197);"></polygon>
			<polygon class="cls-6" points="1080.59 1220.78 1110.86 1103.08 1080.59 1119.89 1080.59 1220.78" style="fill: rgb(101, 94, 109);"></polygon>
			<polygon class="cls-2" points="987.07 1056 1074.51 1119.89 1084.59 1220.78 987.07 1056" style="fill: rgb(101, 94, 109);"></polygon>
			<polygon class="cls-19" points="884.28 942.97 1004.52 954.74 991.07 1059 978.66 1152.06 884.28 942.97" style="fill: rgb(116, 94, 142);">
			</polygon>
			<polygon class="cls-20" points="684.4 830.68 802.11 766.78 872.73 1096.35 684.4 830.68" style="fill: rgb(116, 94, 142);"></polygon>
			<polygon class="cls-17" points="784.17 656.44 685.4 834.68 803.11 770.78 784.17 656.44" style="fill: rgb(116, 94, 142);"></polygon>
			<polygon class="cls-19" points="683.68 650.08 787.93 653.44 690.4 831.68 683.68 650.08" style="fill: rgb(116, 94, 142);"></polygon>
			<polygon class="cls-2" points="956.8 867.67 788.65 652.44 802.11 766.78 956.8 867.67" style="fill: rgb(101, 94, 109);"></polygon>
			<polygon class="cls-20" points="876.49 931.57 956.8 867.67 1000.52 951.74 879.45 941.66 876.49 931.57" style="fill: rgb(116, 94, 142);">
			</polygon>
			<polygon class="cls-16" points="802.11 766.78 956.8 867.67 876.09 931.57 802.11 766.78" style="fill: rgb(116, 94, 142);"></polygon>
			<polygon class="cls-27" points="1079.81 1002.69 1155.5 887.35 1000.52 952.23 1079.81 1002.69" style="fill: rgb(193, 193, 178);"></polygon>
			<polygon class="cls-27" points="1229.2 955.11 1074.51 998.83 1145.13 894.57 1229.2 955.11" style="fill: rgb(193, 193, 178);"></polygon>
			<polygon class="cls-27" points="956.8 867.67 1047.6 797.05 1145.13 891.21 956.8 867.67" style="fill: rgb(193, 193, 178);"></polygon>
			<polygon class="cls-23" points="987.07 786.96 956.8 867.67 1047.6 797.05 987.07 786.96" style="fill: rgb(253, 254, 252);"></polygon>
			<polygon class="cls-27" points="868.73 743.24 983.07 786.96 952.8 867.67 868.73 743.24" style="fill: rgb(193, 193, 178);"></polygon>
			<polygon class="cls-23" points="1047.6 797.05 987.07 786.96 987.07 551.55 1047.6 797.05" style="fill: rgb(253, 254, 252);"></polygon>
			<polygon class="cls-23" points="1172.03 679.35 1046.45 792.39 987.07 551.55 1172.03 679.35" style="fill: rgb(253, 254, 252);"></polygon>
			<polygon class="cls-23" points="1246.02 844.13 1262.83 766.78 1175.39 686.07 1047.6 793.69 1145.13 891.21 1246.02 844.13" style="fill: rgb(253, 254, 252);">
			</polygon>
			<polygon class="cls-26" points="1272.92 847.49 1262.83 766.78 1246.02 844.13 1247.7 885.36 1272.92 847.49">
			</polygon>
			<polygon class="cls-23" points="1320 665.89 1007.25 386.77 963.53 480.93 987.07 551.55 1175.39 675.98 1320 665.89" style="fill: rgb(253, 254, 252);"></polygon>
			<polygon class="cls-23" points="852.55 625.54 872.73 565.01 987.07 692.8 852.55 625.54" style="fill: rgb(253, 254, 252);"></polygon>
			<polygon class="cls-23" points="721.4 433.85 872.73 565.01 852.55 625.54 788.65 652.44 721.4 433.85" style="fill: rgb(253, 254, 252);">
			</polygon>
			<polygon class="cls-23" points="872.73 494.38 987.07 692.8 872.73 565.01 872.73 494.38" style="fill: rgb(253, 254, 252);"></polygon>
			<polygon class="cls-23" points="987.07 551.55 987.07 692.8 872.73 494.38 987.07 551.55" style="fill: rgb(253, 254, 252);"></polygon>
			<polygon class="cls-23" points="721.4 433.85 872.73 494.38 872.73 565.01 721.4 433.85" style="fill: rgb(253, 254, 252);"></polygon>
			<polygon class="cls-23" points="963.53 480.93 729.8 436.71 872.73 494.38 963.53 480.93" style="fill: rgb(253, 254, 252);"></polygon>
			<polygon class="cls-27" points="1079.55 451.3 1067.78 359.87 919.81 285.88 1007.25 386.77 1079.55 451.3" style="fill: rgb(193, 193, 178);">
			</polygon>
		</svg>